<svg xmlns="http://www.w3.org/2000/svg" width="45.763" height="31.726" viewBox="0 0 45.763 31.726"><defs><style>.a{fill:red;}</style></defs><g transform="translate(0 -78.521)"><g transform="translate(28.794 98.71)"><g transform="translate(0 0)"><path class="a" d="M327.919,304.4a5.768,5.768,0,1,0,5.768,5.768A5.775,5.775,0,0,0,327.919,304.4Zm0,8.653a2.884,2.884,0,1,1,2.884-2.884A2.887,2.887,0,0,1,327.919,313.056Z" transform="translate(-322.151 -304.403)"/></g></g><g transform="translate(9.085 98.71)"><g transform="translate(0 0)"><path class="a" d="M107.415,304.4a5.768,5.768,0,1,0,5.768,5.768A5.775,5.775,0,0,0,107.415,304.4Zm0,8.653a2.884,2.884,0,1,1,2.884-2.884A2.887,2.887,0,0,1,107.415,313.056Z" transform="translate(-101.647 -304.403)"/></g></g><g transform="translate(29.563 81.405)"><g transform="translate(0 0)"><path class="a" d="M339.64,111.584a1.443,1.443,0,0,0-1.289-.794h-7.6v2.884h6.706l3.927,7.81,2.578-1.3Z" transform="translate(-330.756 -110.79)"/></g></g><g transform="translate(19.324 103.085)"><g transform="translate(0 0)"><rect class="a" width="10.912" height="2.884"/></g></g><g transform="translate(4.086 103.085)"><g transform="translate(0 0)"><path class="a" d="M52.156,353.345h-5a1.442,1.442,0,0,0,0,2.884h5a1.442,1.442,0,1,0,0-2.884Z" transform="translate(-45.715 -353.345)"/></g></g><g transform="translate(4.086 78.521)"><g transform="translate(0 0)"><path class="a" d="M87.089,94.269l-2.837-3.653a1.44,1.44,0,0,0-1.139-.558H72.634V79.963a1.442,1.442,0,0,0-1.442-1.442H47.157a1.442,1.442,0,0,0,0,2.884H69.75V91.5a1.442,1.442,0,0,0,1.442,1.442H82.407l2.1,2.705v7.437h-3.99a1.442,1.442,0,0,0,0,2.884h5.432a1.442,1.442,0,0,0,1.442-1.442V95.153A1.444,1.444,0,0,0,87.089,94.269Z" transform="translate(-45.715 -78.521)"/></g></g><g transform="translate(2.355 95.778)"><g transform="translate(0 0)"><path class="a" d="M34.429,271.6H27.8a1.442,1.442,0,0,0,0,2.884h6.634a1.442,1.442,0,0,0,0-2.884Z" transform="translate(-26.353 -271.597)"/></g></g><g transform="translate(0 90.106)"><g transform="translate(0 0)"><path class="a" d="M13.748,208.134H1.442a1.442,1.442,0,0,0,0,2.884H13.748a1.442,1.442,0,0,0,0-2.884Z" transform="translate(0 -208.134)"/></g></g><g transform="translate(2.355 84.434)"><path class="a" d="M40.1,144.672H27.8a1.442,1.442,0,1,0,0,2.884H40.1a1.442,1.442,0,1,0,0-2.884Z" transform="translate(-26.353 -144.672)"/></g></g></svg>