<svg xmlns="http://www.w3.org/2000/svg" width="5.975" height="11.448" viewBox="0 0 5.975 11.448"><defs><style>.a{fill:#fff;}</style></defs><g transform="translate(0)"><path class="a" d="M117.753.2a.249.249,0,0,0-.352.352l5.3,5.3-5.3,5.3a.249.249,0,0,0,.346.358l.006-.006,5.474-5.474a.249.249,0,0,0,0-.352Z" transform="translate(-117.325 -0.131)"/><path class="a" d="M117.7,11.445a.249.249,0,0,1-.176-.425l5.3-5.3-5.3-5.3a.249.249,0,0,1,.352-.352l5.474,5.474a.249.249,0,0,1,0,.352l-5.474,5.474A.249.249,0,0,1,117.7,11.445Z" transform="translate(-117.444 0)"/></g></svg>